<svg width="28" height="28" viewBox="0 0 28 28" fill="none" xmlns="http://www.w3.org/2000/svg">
<path d="M23.3786 7.95663L16.6586 3.25497C14.827 1.97163 12.0153 2.04163 10.2536 3.40663L4.40865 7.9683C3.24198 8.8783 2.32031 10.745 2.32031 12.215V20.265C2.32031 23.24 4.73531 25.6666 7.71031 25.6666H20.287C23.262 25.6666 25.677 23.2516 25.677 20.2766V12.3666C25.677 10.7916 24.662 8.85497 23.3786 7.95663ZM14.8736 21C14.8736 21.4783 14.477 21.875 13.9986 21.875C13.5203 21.875 13.1236 21.4783 13.1236 21V17.5C13.1236 17.0216 13.5203 16.625 13.9986 16.625C14.477 16.625 14.8736 17.0216 14.8736 17.5V21Z" fill="#56C9DC"/>
</svg>
