<svg width="31" height="28" viewBox="0 0 31 28" fill="none" xmlns="http://www.w3.org/2000/svg">
<mask id="path-1-outside-1_3_3937" maskUnits="userSpaceOnUse" x="0" y="0" width="31" height="28" fill="black">
<rect fill="white" width="31" height="28"/>
<path d="M30.4168 6.35772C30.3956 6.08479 30.3096 5.82147 30.1663 5.59107C30.023 5.36067 29.827 5.1703 29.5954 5.03682C28.7369 4.54675 27.3179 4.75156 25.3873 5.43743C25.6309 4.33316 25.5698 3.18045 25.2108 2.11026C25.1247 1.81547 24.956 1.55358 24.7261 1.35751C24.4961 1.16145 24.2152 1.03997 23.9186 1.00835C23.6336 0.977114 23.346 1.03484 23.0931 1.17407C22.8402 1.31331 22.6335 1.52765 22.4997 1.78942C22.1311 2.60569 21.498 3.26337 20.7097 3.64882C19.9586 3.03959 19.0286 2.7136 18.0735 2.72484H13.3852C12.4299 2.71287 11.4994 3.03888 10.7485 3.64867C9.96072 3.2634 9.32797 2.60619 8.95948 1.79051C8.82599 1.52832 8.61932 1.31357 8.36625 1.17411C8.11317 1.03465 7.82537 0.976906 7.54013 1.00836C7.24287 1.04022 6.9614 1.16228 6.73124 1.35914C6.50107 1.556 6.33253 1.81884 6.24686 2.1145C5.8884 3.1835 5.82764 4.33493 6.07149 5.43783C4.14085 4.75209 2.72195 4.54738 1.86326 5.03682C1.63175 5.1703 1.43568 5.36067 1.29242 5.59107C1.14915 5.82147 1.06311 6.08479 1.04191 6.35772C0.951666 7.00356 1.00762 7.6622 1.20537 8.28195C1.40312 8.9017 1.73729 9.46568 2.18165 9.92962C3.03863 10.8023 4.74972 11.7298 8.07592 11.4128C7.70751 12.786 7.43191 13.8282 7.42845 13.843C7.37369 14.0801 6.14813 19.6181 9.76049 22.5538C9.71044 22.9336 9.6808 23.3161 9.67173 23.6993C9.66016 23.9544 9.69999 24.2091 9.7887 24.4475C9.8774 24.6858 10.013 24.9026 10.187 25.084C10.5019 25.3832 10.8986 25.5747 11.3228 25.6324L11.3286 25.6331C11.5361 26.1871 11.9011 26.6632 12.3758 26.9988C12.8504 27.3343 13.4123 27.5136 13.9875 27.5128H17.4712C18.0464 27.5136 18.6083 27.3344 19.0829 26.9988C19.5575 26.6633 19.9226 26.1872 20.1301 25.6332L20.1359 25.6324C20.5604 25.5758 20.9574 25.3841 21.2717 25.084C21.4457 24.9026 21.5813 24.6858 21.67 24.4475C21.7587 24.2091 21.7985 23.9544 21.787 23.6993C21.7779 23.3161 21.7483 22.9336 21.6982 22.5538C25.3103 19.6181 24.0849 14.0799 24.0261 13.8255C24.0261 13.8255 23.751 12.7852 23.3827 11.4128C26.7088 11.7298 28.4201 10.8027 29.277 9.92961C29.7214 9.46568 30.0556 8.9017 30.2533 8.28195C30.4511 7.6622 30.507 7.00356 30.4168 6.35772ZM23.423 2.30911C23.4574 2.23438 23.5139 2.17284 23.5843 2.1333C23.6547 2.09377 23.7354 2.07827 23.8148 2.08905C23.9053 2.09812 23.9911 2.13531 24.0607 2.1957C24.1303 2.25609 24.1806 2.33685 24.2049 2.42733C24.656 3.97477 24.5787 5.16625 23.9866 5.97951C23.4081 6.2192 22.7964 6.48738 22.1462 6.78576C21.937 6.00079 21.7693 5.37259 21.6848 5.06543C21.6272 4.86405 21.5444 4.67127 21.4387 4.49192C22.2917 3.97925 22.9814 3.22063 23.423 2.30911ZM18.0735 3.81083C18.8483 3.79773 19.6002 4.08191 20.1838 4.60836C20.1971 4.62467 20.2113 4.64025 20.2262 4.65502C20.4345 4.84562 20.5891 5.09074 20.6737 5.36452C20.763 5.68941 20.9472 6.37986 21.1761 7.2389C20.9836 7.33003 20.7917 7.42075 20.5936 7.51582C16.6482 9.41011 17.9973 15.3281 18.8172 17.9277L18.816 17.9273C17.9559 17.6695 17.0603 17.5612 16.1658 17.6069C15.8766 17.6178 15.5821 17.6178 15.2929 17.6069C14.3989 17.5571 13.5032 17.6635 12.6434 17.9217C13.4636 15.3188 14.8073 9.40861 10.8651 7.51584C10.667 7.42076 10.4751 7.33008 10.2826 7.23894C10.5115 6.37992 10.6957 5.68942 10.7845 5.36614C10.8691 5.09178 11.0239 4.8461 11.2325 4.65505C11.2474 4.64021 11.2918 4.59513 11.3052 4.5787C11.8844 4.06902 12.6243 3.79589 13.3852 3.81083H18.0735ZM7.25282 2.43162C7.27666 2.34031 7.32683 2.25864 7.39667 2.19745C7.46651 2.13627 7.55272 2.09847 7.64386 2.08907C7.7235 2.07831 7.80439 2.09393 7.87489 2.13366C7.94539 2.17339 8.00186 2.2352 8.03618 2.31019C8.47769 3.22134 9.16715 3.9796 10.02 4.49195C9.91398 4.67199 9.8311 4.86549 9.77339 5.06759C9.68943 5.37279 9.52173 6.00086 9.31251 6.7859C8.66237 6.48762 8.05078 6.21947 7.47231 5.97988C6.88001 5.1666 6.8026 3.97517 7.25282 2.43162ZM2.92007 9.15648C2.59079 8.80941 2.34401 8.38815 2.19916 7.92586C2.05432 7.46358 2.01536 6.97288 2.08536 6.49241C2.08623 6.38958 2.11323 6.28878 2.16364 6.2001C2.21406 6.11142 2.28614 6.03796 2.37267 5.98706C3.11899 5.55943 5.03834 6.15363 6.91172 6.91566L6.91975 6.91892C7.65535 7.21836 8.38373 7.54239 9.03063 7.84201L8.37914 10.2823C5.84214 10.5911 3.95484 10.21 2.92007 9.15648ZM8.44725 14.1119C8.44725 14.1119 8.83033 12.6632 9.29788 10.9265L9.99963 8.29865C10.1503 8.37064 10.292 8.43867 10.422 8.50108C14.2299 10.329 11.6831 17.5606 11.2874 18.6152C10.6496 19.1313 10.2358 20.2162 9.98384 21.3028C7.44526 18.6959 8.44016 14.1441 8.44725 14.1119ZM17.4712 26.4268H13.9875C13.7032 26.4277 13.4227 26.3591 13.1688 26.2268C12.915 26.0945 12.695 25.9021 12.5268 25.6654H18.9398C18.7699 25.9023 18.5485 26.0946 18.2934 26.2269C18.0383 26.3591 17.7566 26.4276 17.4712 26.4268ZM20.5407 24.3021C20.3108 24.4861 20.0271 24.5837 19.7362 24.579H11.7067C11.4194 24.5924 11.1378 24.4935 10.918 24.3021C10.8482 24.2223 10.795 24.1286 10.7616 24.0268C10.7281 23.9251 10.7151 23.8173 10.7234 23.7102C10.7322 23.2643 10.7726 22.8196 10.8443 22.3798V22.3744C10.8496 22.3364 10.8549 22.3093 10.8601 22.2712C10.8644 22.2591 10.8662 22.2461 10.8654 22.2332C11.0757 21.0115 11.4911 19.806 11.9433 19.4477C11.9537 19.4413 11.9637 19.4344 11.9734 19.4269C11.9987 19.4125 12.0228 19.396 12.0454 19.3774C12.0528 19.3712 12.0625 19.367 12.0696 19.3608C12.9432 18.859 13.9375 18.6254 14.9354 18.6874C15.0405 18.6874 15.1457 18.6874 15.2561 18.6929C15.5716 18.7037 15.8871 18.7037 16.2026 18.6929C18.4059 18.6223 19.3787 19.3553 19.405 19.3771C19.4102 19.3825 19.4155 19.3879 19.4207 19.3879C19.4259 19.3915 19.4301 19.3935 19.4346 19.3969C19.4461 19.4053 19.4581 19.4123 19.4703 19.4197C19.4849 19.429 19.5018 19.4383 19.5154 19.4476C19.9676 19.806 20.383 21.0115 20.5933 22.2332C20.5925 22.2461 20.5943 22.2591 20.5986 22.2712C20.6039 22.3092 20.6091 22.3364 20.6144 22.3744V22.3798C20.6861 22.8196 20.7265 23.2643 20.7353 23.7102C20.7436 23.8173 20.7306 23.9251 20.6972 24.0268C20.6637 24.1286 20.6105 24.2223 20.5407 24.3021ZM21.4749 21.3027C21.2229 20.2161 20.8091 19.1313 20.1713 18.6152C19.7756 17.5606 17.2288 10.3289 21.0367 8.50107C21.1667 8.43866 21.3084 8.37063 21.4591 8.29861L22.1611 10.9276C22.6255 12.6531 23.0071 14.0943 23.0071 14.0943C23.0203 14.1519 24.0108 18.6982 21.4749 21.3027ZM28.5386 9.15648C27.5041 10.2105 25.6157 10.5926 23.0796 10.2825L22.428 7.84178C23.0735 7.54259 23.8002 7.21911 24.5342 6.92004L24.5493 6.9138C26.4208 6.15231 28.3378 5.5591 29.086 5.98706C29.1726 6.03796 29.2446 6.11142 29.2951 6.2001C29.3455 6.28878 29.3725 6.38958 29.3733 6.49241C29.4433 6.97288 29.4044 7.46358 29.2595 7.92586C29.1147 8.38815 28.8679 8.80941 28.5386 9.15648Z"/>
</mask>
<path d="M30.4168 6.35772C30.3956 6.08479 30.3096 5.82147 30.1663 5.59107C30.023 5.36067 29.827 5.1703 29.5954 5.03682C28.7369 4.54675 27.3179 4.75156 25.3873 5.43743C25.6309 4.33316 25.5698 3.18045 25.2108 2.11026C25.1247 1.81547 24.956 1.55358 24.7261 1.35751C24.4961 1.16145 24.2152 1.03997 23.9186 1.00835C23.6336 0.977114 23.346 1.03484 23.0931 1.17407C22.8402 1.31331 22.6335 1.52765 22.4997 1.78942C22.1311 2.60569 21.498 3.26337 20.7097 3.64882C19.9586 3.03959 19.0286 2.7136 18.0735 2.72484H13.3852C12.4299 2.71287 11.4994 3.03888 10.7485 3.64867C9.96072 3.2634 9.32797 2.60619 8.95948 1.79051C8.82599 1.52832 8.61932 1.31357 8.36625 1.17411C8.11317 1.03465 7.82537 0.976906 7.54013 1.00836C7.24287 1.04022 6.9614 1.16228 6.73124 1.35914C6.50107 1.556 6.33253 1.81884 6.24686 2.1145C5.8884 3.1835 5.82764 4.33493 6.07149 5.43783C4.14085 4.75209 2.72195 4.54738 1.86326 5.03682C1.63175 5.1703 1.43568 5.36067 1.29242 5.59107C1.14915 5.82147 1.06311 6.08479 1.04191 6.35772C0.951666 7.00356 1.00762 7.6622 1.20537 8.28195C1.40312 8.9017 1.73729 9.46568 2.18165 9.92962C3.03863 10.8023 4.74972 11.7298 8.07592 11.4128C7.70751 12.786 7.43191 13.8282 7.42845 13.843C7.37369 14.0801 6.14813 19.6181 9.76049 22.5538C9.71044 22.9336 9.6808 23.3161 9.67173 23.6993C9.66016 23.9544 9.69999 24.2091 9.7887 24.4475C9.8774 24.6858 10.013 24.9026 10.187 25.084C10.5019 25.3832 10.8986 25.5747 11.3228 25.6324L11.3286 25.6331C11.5361 26.1871 11.9011 26.6632 12.3758 26.9988C12.8504 27.3343 13.4123 27.5136 13.9875 27.5128H17.4712C18.0464 27.5136 18.6083 27.3344 19.0829 26.9988C19.5575 26.6633 19.9226 26.1872 20.1301 25.6332L20.1359 25.6324C20.5604 25.5758 20.9574 25.3841 21.2717 25.084C21.4457 24.9026 21.5813 24.6858 21.67 24.4475C21.7587 24.2091 21.7985 23.9544 21.787 23.6993C21.7779 23.3161 21.7483 22.9336 21.6982 22.5538C25.3103 19.6181 24.0849 14.0799 24.0261 13.8255C24.0261 13.8255 23.751 12.7852 23.3827 11.4128C26.7088 11.7298 28.4201 10.8027 29.277 9.92961C29.7214 9.46568 30.0556 8.9017 30.2533 8.28195C30.4511 7.6622 30.507 7.00356 30.4168 6.35772ZM23.423 2.30911C23.4574 2.23438 23.5139 2.17284 23.5843 2.1333C23.6547 2.09377 23.7354 2.07827 23.8148 2.08905C23.9053 2.09812 23.9911 2.13531 24.0607 2.1957C24.1303 2.25609 24.1806 2.33685 24.2049 2.42733C24.656 3.97477 24.5787 5.16625 23.9866 5.97951C23.4081 6.2192 22.7964 6.48738 22.1462 6.78576C21.937 6.00079 21.7693 5.37259 21.6848 5.06543C21.6272 4.86405 21.5444 4.67127 21.4387 4.49192C22.2917 3.97925 22.9814 3.22063 23.423 2.30911ZM18.0735 3.81083C18.8483 3.79773 19.6002 4.08191 20.1838 4.60836C20.1971 4.62467 20.2113 4.64025 20.2262 4.65502C20.4345 4.84562 20.5891 5.09074 20.6737 5.36452C20.763 5.68941 20.9472 6.37986 21.1761 7.2389C20.9836 7.33003 20.7917 7.42075 20.5936 7.51582C16.6482 9.41011 17.9973 15.3281 18.8172 17.9277L18.816 17.9273C17.9559 17.6695 17.0603 17.5612 16.1658 17.6069C15.8766 17.6178 15.5821 17.6178 15.2929 17.6069C14.3989 17.5571 13.5032 17.6635 12.6434 17.9217C13.4636 15.3188 14.8073 9.40861 10.8651 7.51584C10.667 7.42076 10.4751 7.33008 10.2826 7.23894C10.5115 6.37992 10.6957 5.68942 10.7845 5.36614C10.8691 5.09178 11.0239 4.8461 11.2325 4.65505C11.2474 4.64021 11.2918 4.59513 11.3052 4.5787C11.8844 4.06902 12.6243 3.79589 13.3852 3.81083H18.0735ZM7.25282 2.43162C7.27666 2.34031 7.32683 2.25864 7.39667 2.19745C7.46651 2.13627 7.55272 2.09847 7.64386 2.08907C7.7235 2.07831 7.80439 2.09393 7.87489 2.13366C7.94539 2.17339 8.00186 2.2352 8.03618 2.31019C8.47769 3.22134 9.16715 3.9796 10.02 4.49195C9.91398 4.67199 9.8311 4.86549 9.77339 5.06759C9.68943 5.37279 9.52173 6.00086 9.31251 6.7859C8.66237 6.48762 8.05078 6.21947 7.47231 5.97988C6.88001 5.1666 6.8026 3.97517 7.25282 2.43162ZM2.92007 9.15648C2.59079 8.80941 2.34401 8.38815 2.19916 7.92586C2.05432 7.46358 2.01536 6.97288 2.08536 6.49241C2.08623 6.38958 2.11323 6.28878 2.16364 6.2001C2.21406 6.11142 2.28614 6.03796 2.37267 5.98706C3.11899 5.55943 5.03834 6.15363 6.91172 6.91566L6.91975 6.91892C7.65535 7.21836 8.38373 7.54239 9.03063 7.84201L8.37914 10.2823C5.84214 10.5911 3.95484 10.21 2.92007 9.15648ZM8.44725 14.1119C8.44725 14.1119 8.83033 12.6632 9.29788 10.9265L9.99963 8.29865C10.1503 8.37064 10.292 8.43867 10.422 8.50108C14.2299 10.329 11.6831 17.5606 11.2874 18.6152C10.6496 19.1313 10.2358 20.2162 9.98384 21.3028C7.44526 18.6959 8.44016 14.1441 8.44725 14.1119ZM17.4712 26.4268H13.9875C13.7032 26.4277 13.4227 26.3591 13.1688 26.2268C12.915 26.0945 12.695 25.9021 12.5268 25.6654H18.9398C18.7699 25.9023 18.5485 26.0946 18.2934 26.2269C18.0383 26.3591 17.7566 26.4276 17.4712 26.4268ZM20.5407 24.3021C20.3108 24.4861 20.0271 24.5837 19.7362 24.579H11.7067C11.4194 24.5924 11.1378 24.4935 10.918 24.3021C10.8482 24.2223 10.795 24.1286 10.7616 24.0268C10.7281 23.9251 10.7151 23.8173 10.7234 23.7102C10.7322 23.2643 10.7726 22.8196 10.8443 22.3798V22.3744C10.8496 22.3364 10.8549 22.3093 10.8601 22.2712C10.8644 22.2591 10.8662 22.2461 10.8654 22.2332C11.0757 21.0115 11.4911 19.806 11.9433 19.4477C11.9537 19.4413 11.9637 19.4344 11.9734 19.4269C11.9987 19.4125 12.0228 19.396 12.0454 19.3774C12.0528 19.3712 12.0625 19.367 12.0696 19.3608C12.9432 18.859 13.9375 18.6254 14.9354 18.6874C15.0405 18.6874 15.1457 18.6874 15.2561 18.6929C15.5716 18.7037 15.8871 18.7037 16.2026 18.6929C18.4059 18.6223 19.3787 19.3553 19.405 19.3771C19.4102 19.3825 19.4155 19.3879 19.4207 19.3879C19.4259 19.3915 19.4301 19.3935 19.4346 19.3969C19.4461 19.4053 19.4581 19.4123 19.4703 19.4197C19.4849 19.429 19.5018 19.4383 19.5154 19.4476C19.9676 19.806 20.383 21.0115 20.5933 22.2332C20.5925 22.2461 20.5943 22.2591 20.5986 22.2712C20.6039 22.3092 20.6091 22.3364 20.6144 22.3744V22.3798C20.6861 22.8196 20.7265 23.2643 20.7353 23.7102C20.7436 23.8173 20.7306 23.9251 20.6972 24.0268C20.6637 24.1286 20.6105 24.2223 20.5407 24.3021ZM21.4749 21.3027C21.2229 20.2161 20.8091 19.1313 20.1713 18.6152C19.7756 17.5606 17.2288 10.3289 21.0367 8.50107C21.1667 8.43866 21.3084 8.37063 21.4591 8.29861L22.1611 10.9276C22.6255 12.6531 23.0071 14.0943 23.0071 14.0943C23.0203 14.1519 24.0108 18.6982 21.4749 21.3027ZM28.5386 9.15648C27.5041 10.2105 25.6157 10.5926 23.0796 10.2825L22.428 7.84178C23.0735 7.54259 23.8002 7.21911 24.5342 6.92004L24.5493 6.9138C26.4208 6.15231 28.3378 5.5591 29.086 5.98706C29.1726 6.03796 29.2446 6.11142 29.2951 6.2001C29.3455 6.28878 29.3725 6.38958 29.3733 6.49241C29.4433 6.97288 29.4044 7.46358 29.2595 7.92586C29.1147 8.38815 28.8679 8.80941 28.5386 9.15648Z" fill="#A1A8AD"/>
<path d="M30.4168 6.35772C30.3956 6.08479 30.3096 5.82147 30.1663 5.59107C30.023 5.36067 29.827 5.1703 29.5954 5.03682C28.7369 4.54675 27.3179 4.75156 25.3873 5.43743C25.6309 4.33316 25.5698 3.18045 25.2108 2.11026C25.1247 1.81547 24.956 1.55358 24.7261 1.35751C24.4961 1.16145 24.2152 1.03997 23.9186 1.00835C23.6336 0.977114 23.346 1.03484 23.0931 1.17407C22.8402 1.31331 22.6335 1.52765 22.4997 1.78942C22.1311 2.60569 21.498 3.26337 20.7097 3.64882C19.9586 3.03959 19.0286 2.7136 18.0735 2.72484H13.3852C12.4299 2.71287 11.4994 3.03888 10.7485 3.64867C9.96072 3.2634 9.32797 2.60619 8.95948 1.79051C8.82599 1.52832 8.61932 1.31357 8.36625 1.17411C8.11317 1.03465 7.82537 0.976906 7.54013 1.00836C7.24287 1.04022 6.9614 1.16228 6.73124 1.35914C6.50107 1.556 6.33253 1.81884 6.24686 2.1145C5.8884 3.1835 5.82764 4.33493 6.07149 5.43783C4.14085 4.75209 2.72195 4.54738 1.86326 5.03682C1.63175 5.1703 1.43568 5.36067 1.29242 5.59107C1.14915 5.82147 1.06311 6.08479 1.04191 6.35772C0.951666 7.00356 1.00762 7.6622 1.20537 8.28195C1.40312 8.9017 1.73729 9.46568 2.18165 9.92962C3.03863 10.8023 4.74972 11.7298 8.07592 11.4128C7.70751 12.786 7.43191 13.8282 7.42845 13.843C7.37369 14.0801 6.14813 19.6181 9.76049 22.5538C9.71044 22.9336 9.6808 23.3161 9.67173 23.6993C9.66016 23.9544 9.69999 24.2091 9.7887 24.4475C9.8774 24.6858 10.013 24.9026 10.187 25.084C10.5019 25.3832 10.8986 25.5747 11.3228 25.6324L11.3286 25.6331C11.5361 26.1871 11.9011 26.6632 12.3758 26.9988C12.8504 27.3343 13.4123 27.5136 13.9875 27.5128H17.4712C18.0464 27.5136 18.6083 27.3344 19.0829 26.9988C19.5575 26.6633 19.9226 26.1872 20.1301 25.6332L20.1359 25.6324C20.5604 25.5758 20.9574 25.3841 21.2717 25.084C21.4457 24.9026 21.5813 24.6858 21.67 24.4475C21.7587 24.2091 21.7985 23.9544 21.787 23.6993C21.7779 23.3161 21.7483 22.9336 21.6982 22.5538C25.3103 19.6181 24.0849 14.0799 24.0261 13.8255C24.0261 13.8255 23.751 12.7852 23.3827 11.4128C26.7088 11.7298 28.4201 10.8027 29.277 9.92961C29.7214 9.46568 30.0556 8.9017 30.2533 8.28195C30.4511 7.6622 30.507 7.00356 30.4168 6.35772ZM23.423 2.30911C23.4574 2.23438 23.5139 2.17284 23.5843 2.1333C23.6547 2.09377 23.7354 2.07827 23.8148 2.08905C23.9053 2.09812 23.9911 2.13531 24.0607 2.1957C24.1303 2.25609 24.1806 2.33685 24.2049 2.42733C24.656 3.97477 24.5787 5.16625 23.9866 5.97951C23.4081 6.2192 22.7964 6.48738 22.1462 6.78576C21.937 6.00079 21.7693 5.37259 21.6848 5.06543C21.6272 4.86405 21.5444 4.67127 21.4387 4.49192C22.2917 3.97925 22.9814 3.22063 23.423 2.30911ZM18.0735 3.81083C18.8483 3.79773 19.6002 4.08191 20.1838 4.60836C20.1971 4.62467 20.2113 4.64025 20.2262 4.65502C20.4345 4.84562 20.5891 5.09074 20.6737 5.36452C20.763 5.68941 20.9472 6.37986 21.1761 7.2389C20.9836 7.33003 20.7917 7.42075 20.5936 7.51582C16.6482 9.41011 17.9973 15.3281 18.8172 17.9277L18.816 17.9273C17.9559 17.6695 17.0603 17.5612 16.1658 17.6069C15.8766 17.6178 15.5821 17.6178 15.2929 17.6069C14.3989 17.5571 13.5032 17.6635 12.6434 17.9217C13.4636 15.3188 14.8073 9.40861 10.8651 7.51584C10.667 7.42076 10.4751 7.33008 10.2826 7.23894C10.5115 6.37992 10.6957 5.68942 10.7845 5.36614C10.8691 5.09178 11.0239 4.8461 11.2325 4.65505C11.2474 4.64021 11.2918 4.59513 11.3052 4.5787C11.8844 4.06902 12.6243 3.79589 13.3852 3.81083H18.0735ZM7.25282 2.43162C7.27666 2.34031 7.32683 2.25864 7.39667 2.19745C7.46651 2.13627 7.55272 2.09847 7.64386 2.08907C7.7235 2.07831 7.80439 2.09393 7.87489 2.13366C7.94539 2.17339 8.00186 2.2352 8.03618 2.31019C8.47769 3.22134 9.16715 3.9796 10.02 4.49195C9.91398 4.67199 9.8311 4.86549 9.77339 5.06759C9.68943 5.37279 9.52173 6.00086 9.31251 6.7859C8.66237 6.48762 8.05078 6.21947 7.47231 5.97988C6.88001 5.1666 6.8026 3.97517 7.25282 2.43162ZM2.92007 9.15648C2.59079 8.80941 2.34401 8.38815 2.19916 7.92586C2.05432 7.46358 2.01536 6.97288 2.08536 6.49241C2.08623 6.38958 2.11323 6.28878 2.16364 6.2001C2.21406 6.11142 2.28614 6.03796 2.37267 5.98706C3.11899 5.55943 5.03834 6.15363 6.91172 6.91566L6.91975 6.91892C7.65535 7.21836 8.38373 7.54239 9.03063 7.84201L8.37914 10.2823C5.84214 10.5911 3.95484 10.21 2.92007 9.15648ZM8.44725 14.1119C8.44725 14.1119 8.83033 12.6632 9.29788 10.9265L9.99963 8.29865C10.1503 8.37064 10.292 8.43867 10.422 8.50108C14.2299 10.329 11.6831 17.5606 11.2874 18.6152C10.6496 19.1313 10.2358 20.2162 9.98384 21.3028C7.44526 18.6959 8.44016 14.1441 8.44725 14.1119ZM17.4712 26.4268H13.9875C13.7032 26.4277 13.4227 26.3591 13.1688 26.2268C12.915 26.0945 12.695 25.9021 12.5268 25.6654H18.9398C18.7699 25.9023 18.5485 26.0946 18.2934 26.2269C18.0383 26.3591 17.7566 26.4276 17.4712 26.4268ZM20.5407 24.3021C20.3108 24.4861 20.0271 24.5837 19.7362 24.579H11.7067C11.4194 24.5924 11.1378 24.4935 10.918 24.3021C10.8482 24.2223 10.795 24.1286 10.7616 24.0268C10.7281 23.9251 10.7151 23.8173 10.7234 23.7102C10.7322 23.2643 10.7726 22.8196 10.8443 22.3798V22.3744C10.8496 22.3364 10.8549 22.3093 10.8601 22.2712C10.8644 22.2591 10.8662 22.2461 10.8654 22.2332C11.0757 21.0115 11.4911 19.806 11.9433 19.4477C11.9537 19.4413 11.9637 19.4344 11.9734 19.4269C11.9987 19.4125 12.0228 19.396 12.0454 19.3774C12.0528 19.3712 12.0625 19.367 12.0696 19.3608C12.9432 18.859 13.9375 18.6254 14.9354 18.6874C15.0405 18.6874 15.1457 18.6874 15.2561 18.6929C15.5716 18.7037 15.8871 18.7037 16.2026 18.6929C18.4059 18.6223 19.3787 19.3553 19.405 19.3771C19.4102 19.3825 19.4155 19.3879 19.4207 19.3879C19.4259 19.3915 19.4301 19.3935 19.4346 19.3969C19.4461 19.4053 19.4581 19.4123 19.4703 19.4197C19.4849 19.429 19.5018 19.4383 19.5154 19.4476C19.9676 19.806 20.383 21.0115 20.5933 22.2332C20.5925 22.2461 20.5943 22.2591 20.5986 22.2712C20.6039 22.3092 20.6091 22.3364 20.6144 22.3744V22.3798C20.6861 22.8196 20.7265 23.2643 20.7353 23.7102C20.7436 23.8173 20.7306 23.9251 20.6972 24.0268C20.6637 24.1286 20.6105 24.2223 20.5407 24.3021ZM21.4749 21.3027C21.2229 20.2161 20.8091 19.1313 20.1713 18.6152C19.7756 17.5606 17.2288 10.3289 21.0367 8.50107C21.1667 8.43866 21.3084 8.37063 21.4591 8.29861L22.1611 10.9276C22.6255 12.6531 23.0071 14.0943 23.0071 14.0943C23.0203 14.1519 24.0108 18.6982 21.4749 21.3027ZM28.5386 9.15648C27.5041 10.2105 25.6157 10.5926 23.0796 10.2825L22.428 7.84178C23.0735 7.54259 23.8002 7.21911 24.5342 6.92004L24.5493 6.9138C26.4208 6.15231 28.3378 5.5591 29.086 5.98706C29.1726 6.03796 29.2446 6.11142 29.2951 6.2001C29.3455 6.28878 29.3725 6.38958 29.3733 6.49241C29.4433 6.97288 29.4044 7.46358 29.2595 7.92586C29.1147 8.38815 28.8679 8.80941 28.5386 9.15648Z" stroke="#A1A8AD" stroke-width="0.2" mask="url(#path-1-outside-1_3_3937)"/>
<path d="M20.4956 12.5028C20.3428 12.5028 20.1933 12.5496 20.0662 12.6373C19.9391 12.725 19.84 12.8497 19.7815 12.9956C19.723 13.1414 19.7077 13.3019 19.7375 13.4567C19.7673 13.6116 19.841 13.7538 19.9491 13.8654C20.0572 13.9771 20.1949 14.0531 20.3448 14.0839C20.4948 14.1147 20.6502 14.0989 20.7914 14.0385C20.9327 13.978 21.0534 13.8757 21.1383 13.7445C21.2233 13.6132 21.2686 13.4589 21.2686 13.301C21.2683 13.0894 21.1867 12.8866 21.0418 12.737C20.897 12.5874 20.7005 12.5032 20.4956 12.5028Z" fill="#A1A8AD"/>
<path d="M10.9644 14.0992C11.1173 14.0992 11.2667 14.0524 11.3938 13.9647C11.5209 13.877 11.62 13.7523 11.6785 13.6065C11.737 13.4606 11.7523 13.3001 11.7225 13.1453C11.6927 12.9905 11.6191 12.8482 11.511 12.7366C11.4029 12.625 11.2651 12.5489 11.1152 12.5181C10.9652 12.4873 10.8098 12.5032 10.6686 12.5636C10.5273 12.624 10.4066 12.7263 10.3217 12.8576C10.2367 12.9888 10.1914 13.1431 10.1914 13.301C10.1917 13.5126 10.2733 13.7154 10.4182 13.8651C10.5631 14.0147 10.7595 14.0989 10.9644 14.0992Z" fill="#A1A8AD"/>
<path d="M13.5396 20.4957C13.3376 20.4963 13.1402 20.5586 12.9724 20.6749C12.8046 20.7911 12.674 20.9561 12.5969 21.149C12.5198 21.3418 12.4998 21.5539 12.5393 21.7586C12.5789 21.9632 12.6762 22.1511 12.8191 22.2987C12.962 22.4462 13.144 22.5467 13.3421 22.5876C13.5403 22.6284 13.7457 22.6077 13.9325 22.5281C14.1192 22.4485 14.279 22.3136 14.3916 22.1403C14.5041 21.967 14.5645 21.7632 14.565 21.5546C14.5654 21.4154 14.5392 21.2775 14.4878 21.1489C14.4364 21.0202 14.3609 20.9033 14.2656 20.8049C14.1703 20.7065 14.0571 20.6285 13.9325 20.5755C13.8079 20.5224 13.6744 20.4953 13.5396 20.4957Z" fill="#A1A8AD"/>
<path d="M17.916 20.4957C17.7137 20.4952 17.5158 20.5566 17.3474 20.6722C17.1789 20.7878 17.0474 20.9524 16.9695 21.1452C16.8916 21.338 16.8708 21.5503 16.9098 21.7552C16.9487 21.9602 17.0457 22.1486 17.1883 22.2967C17.331 22.4448 17.513 22.5459 17.7113 22.5872C17.9096 22.6284 18.1153 22.6081 18.3023 22.5286C18.4894 22.4492 18.6495 22.3142 18.7623 22.1409C18.8751 21.9675 18.9356 21.7635 18.9361 21.5546C18.9367 21.2745 18.8295 21.0057 18.6383 20.8072C18.447 20.6086 18.1872 20.4966 17.916 20.4957Z" fill="#A1A8AD"/>
</svg>
