<svg width="31" height="28" viewBox="0 0 31 28" fill="none" xmlns="http://www.w3.org/2000/svg">
<mask id="path-1-outside-1_3_4212" maskUnits="userSpaceOnUse" x="0" y="0" width="31" height="28" fill="black">
<rect fill="white" width="31" height="28"/>
<path d="M30.4168 6.35772C30.3956 6.08479 30.3096 5.82147 30.1663 5.59107C30.023 5.36067 29.827 5.1703 29.5954 5.03682C28.7369 4.54675 27.3179 4.75156 25.3873 5.43743C25.6309 4.33316 25.5698 3.18045 25.2108 2.11026C25.1247 1.81547 24.956 1.55358 24.7261 1.35751C24.4961 1.16145 24.2152 1.03997 23.9186 1.00835C23.6336 0.977114 23.346 1.03484 23.0931 1.17407C22.8402 1.31331 22.6335 1.52765 22.4997 1.78942C22.1311 2.60569 21.498 3.26337 20.7097 3.64882C19.9586 3.03959 19.0286 2.7136 18.0735 2.72484H13.3852C12.4299 2.71287 11.4994 3.03888 10.7485 3.64867C9.96072 3.2634 9.32797 2.60619 8.95948 1.79051C8.82599 1.52832 8.61932 1.31357 8.36625 1.17411C8.11317 1.03465 7.82537 0.976906 7.54013 1.00836C7.24287 1.04022 6.9614 1.16228 6.73124 1.35914C6.50107 1.556 6.33253 1.81884 6.24686 2.1145C5.8884 3.1835 5.82764 4.33493 6.07149 5.43783C4.14085 4.75209 2.72195 4.54738 1.86326 5.03682C1.63175 5.1703 1.43568 5.36067 1.29242 5.59107C1.14915 5.82147 1.06311 6.08479 1.04191 6.35772C0.951666 7.00356 1.00762 7.6622 1.20537 8.28195C1.40312 8.9017 1.73729 9.46568 2.18165 9.92962C3.03863 10.8023 4.74972 11.7298 8.07592 11.4128C7.70751 12.786 7.43191 13.8282 7.42845 13.843C7.37369 14.0801 6.14813 19.6181 9.76049 22.5538C9.71044 22.9336 9.6808 23.3161 9.67173 23.6993C9.66016 23.9544 9.69999 24.2091 9.7887 24.4475C9.8774 24.6858 10.013 24.9026 10.187 25.084C10.5019 25.3832 10.8986 25.5747 11.3228 25.6324L11.3286 25.6331C11.5361 26.1871 11.9011 26.6632 12.3758 26.9988C12.8504 27.3343 13.4123 27.5136 13.9875 27.5128H17.4712C18.0464 27.5136 18.6083 27.3344 19.0829 26.9988C19.5575 26.6633 19.9226 26.1872 20.1301 25.6332L20.1359 25.6324C20.5604 25.5758 20.9574 25.3841 21.2717 25.084C21.4457 24.9026 21.5813 24.6858 21.67 24.4475C21.7587 24.2091 21.7985 23.9544 21.787 23.6993C21.7779 23.3161 21.7483 22.9336 21.6982 22.5538C25.3103 19.6181 24.0849 14.0799 24.0261 13.8255C24.0261 13.8255 23.751 12.7852 23.3827 11.4128C26.7088 11.7298 28.4201 10.8027 29.277 9.92961C29.7214 9.46568 30.0556 8.9017 30.2533 8.28195C30.4511 7.6622 30.507 7.00356 30.4168 6.35772ZM23.423 2.30911C23.4574 2.23438 23.5139 2.17284 23.5843 2.1333C23.6547 2.09377 23.7354 2.07827 23.8148 2.08905C23.9053 2.09812 23.9911 2.13531 24.0607 2.1957C24.1303 2.25609 24.1806 2.33685 24.2049 2.42733C24.656 3.97477 24.5787 5.16625 23.9866 5.97951C23.4081 6.2192 22.7964 6.48738 22.1462 6.78576C21.937 6.00079 21.7693 5.37259 21.6848 5.06543C21.6272 4.86405 21.5444 4.67127 21.4387 4.49192C22.2917 3.97925 22.9814 3.22063 23.423 2.30911ZM18.0735 3.81083C18.8483 3.79773 19.6002 4.08191 20.1838 4.60836C20.1971 4.62467 20.2113 4.64025 20.2262 4.65502C20.4345 4.84562 20.5891 5.09074 20.6737 5.36452C20.763 5.68941 20.9472 6.37986 21.1761 7.2389C20.9836 7.33003 20.7917 7.42075 20.5936 7.51582C16.6482 9.41011 17.9973 15.3281 18.8172 17.9277L18.816 17.9273C17.9559 17.6695 17.0603 17.5612 16.1658 17.6069C15.8766 17.6178 15.5821 17.6178 15.2929 17.6069C14.3989 17.5571 13.5032 17.6635 12.6434 17.9217C13.4636 15.3188 14.8073 9.40861 10.8651 7.51584C10.667 7.42076 10.4751 7.33008 10.2826 7.23894C10.5115 6.37992 10.6957 5.68942 10.7845 5.36614C10.8691 5.09178 11.0239 4.8461 11.2325 4.65505C11.2474 4.64021 11.2918 4.59513 11.3052 4.5787C11.8844 4.06902 12.6243 3.79589 13.3852 3.81083H18.0735ZM7.25282 2.43162C7.27666 2.34031 7.32683 2.25864 7.39667 2.19745C7.46651 2.13627 7.55272 2.09847 7.64386 2.08907C7.7235 2.07831 7.80439 2.09393 7.87489 2.13366C7.94539 2.17339 8.00186 2.2352 8.03618 2.31019C8.47769 3.22134 9.16715 3.9796 10.02 4.49195C9.91398 4.67199 9.8311 4.86549 9.77339 5.06759C9.68943 5.37279 9.52173 6.00086 9.31251 6.7859C8.66237 6.48762 8.05078 6.21947 7.47231 5.97988C6.88001 5.1666 6.8026 3.97517 7.25282 2.43162ZM2.92007 9.15648C2.59079 8.80941 2.34401 8.38815 2.19916 7.92586C2.05432 7.46358 2.01536 6.97288 2.08536 6.49241C2.08623 6.38958 2.11323 6.28878 2.16364 6.2001C2.21406 6.11142 2.28614 6.03796 2.37267 5.98706C3.11899 5.55943 5.03834 6.15363 6.91172 6.91566L6.91975 6.91892C7.65535 7.21836 8.38373 7.54239 9.03063 7.84201L8.37914 10.2823C5.84214 10.5911 3.95484 10.21 2.92007 9.15648ZM8.44725 14.1119C8.44725 14.1119 8.83033 12.6632 9.29788 10.9265L9.99963 8.29865C10.1503 8.37064 10.292 8.43867 10.422 8.50108C14.2299 10.329 11.6831 17.5606 11.2874 18.6152C10.6496 19.1313 10.2358 20.2162 9.98384 21.3028C7.44526 18.6959 8.44016 14.1441 8.44725 14.1119ZM17.4712 26.4268H13.9875C13.7032 26.4277 13.4227 26.3591 13.1688 26.2268C12.915 26.0945 12.695 25.9021 12.5268 25.6654H18.9398C18.7699 25.9023 18.5485 26.0946 18.2934 26.2269C18.0383 26.3591 17.7566 26.4276 17.4712 26.4268ZM20.5407 24.3021C20.3108 24.4861 20.0271 24.5837 19.7362 24.579H11.7067C11.4194 24.5924 11.1378 24.4935 10.918 24.3021C10.8482 24.2223 10.795 24.1286 10.7616 24.0268C10.7281 23.9251 10.7151 23.8173 10.7234 23.7102C10.7322 23.2643 10.7726 22.8196 10.8443 22.3798V22.3744C10.8496 22.3364 10.8549 22.3093 10.8601 22.2712C10.8644 22.2591 10.8662 22.2461 10.8654 22.2332C11.0757 21.0115 11.4911 19.806 11.9433 19.4477C11.9537 19.4413 11.9637 19.4344 11.9734 19.4269C11.9987 19.4125 12.0228 19.396 12.0454 19.3774C12.0528 19.3712 12.0625 19.367 12.0696 19.3608C12.9432 18.859 13.9375 18.6254 14.9354 18.6874C15.0405 18.6874 15.1457 18.6874 15.2561 18.6929C15.5716 18.7037 15.8871 18.7037 16.2026 18.6929C18.4059 18.6223 19.3787 19.3553 19.405 19.3771C19.4102 19.3825 19.4155 19.3879 19.4207 19.3879C19.4259 19.3915 19.4301 19.3935 19.4346 19.3969C19.4461 19.4053 19.4581 19.4123 19.4703 19.4197C19.4849 19.429 19.5018 19.4383 19.5154 19.4476C19.9676 19.806 20.383 21.0115 20.5933 22.2332C20.5925 22.2461 20.5943 22.2591 20.5986 22.2712C20.6039 22.3092 20.6091 22.3364 20.6144 22.3744V22.3798C20.6861 22.8196 20.7265 23.2643 20.7353 23.7102C20.7436 23.8173 20.7306 23.9251 20.6972 24.0268C20.6637 24.1286 20.6105 24.2223 20.5407 24.3021ZM21.4749 21.3027C21.2229 20.2161 20.8091 19.1313 20.1713 18.6152C19.7756 17.5606 17.2288 10.3289 21.0367 8.50107C21.1667 8.43866 21.3084 8.37063 21.4591 8.29861L22.1611 10.9276C22.6255 12.6531 23.0071 14.0943 23.0071 14.0943C23.0203 14.1519 24.0108 18.6982 21.4749 21.3027ZM28.5386 9.15648C27.5041 10.2105 25.6157 10.5926 23.0796 10.2825L22.428 7.84178C23.0735 7.54259 23.8002 7.21911 24.5342 6.92004L24.5493 6.9138C26.4208 6.15231 28.3378 5.5591 29.086 5.98706C29.1726 6.03796 29.2446 6.11142 29.2951 6.2001C29.3455 6.28878 29.3725 6.38958 29.3733 6.49241C29.4433 6.97288 29.4044 7.46358 29.2595 7.92586C29.1147 8.38815 28.8679 8.80941 28.5386 9.15648Z"/>
</mask>
<path d="M30.4168 6.35772C30.3956 6.08479 30.3096 5.82147 30.1663 5.59107C30.023 5.36067 29.827 5.1703 29.5954 5.03682C28.7369 4.54675 27.3179 4.75156 25.3873 5.43743C25.6309 4.33316 25.5698 3.18045 25.2108 2.11026C25.1247 1.81547 24.956 1.55358 24.7261 1.35751C24.4961 1.16145 24.2152 1.03997 23.9186 1.00835C23.6336 0.977114 23.346 1.03484 23.0931 1.17407C22.8402 1.31331 22.6335 1.52765 22.4997 1.78942C22.1311 2.60569 21.498 3.26337 20.7097 3.64882C19.9586 3.03959 19.0286 2.7136 18.0735 2.72484H13.3852C12.4299 2.71287 11.4994 3.03888 10.7485 3.64867C9.96072 3.2634 9.32797 2.60619 8.95948 1.79051C8.82599 1.52832 8.61932 1.31357 8.36625 1.17411C8.11317 1.03465 7.82537 0.976906 7.54013 1.00836C7.24287 1.04022 6.9614 1.16228 6.73124 1.35914C6.50107 1.556 6.33253 1.81884 6.24686 2.1145C5.8884 3.1835 5.82764 4.33493 6.07149 5.43783C4.14085 4.75209 2.72195 4.54738 1.86326 5.03682C1.63175 5.1703 1.43568 5.36067 1.29242 5.59107C1.14915 5.82147 1.06311 6.08479 1.04191 6.35772C0.951666 7.00356 1.00762 7.6622 1.20537 8.28195C1.40312 8.9017 1.73729 9.46568 2.18165 9.92962C3.03863 10.8023 4.74972 11.7298 8.07592 11.4128C7.70751 12.786 7.43191 13.8282 7.42845 13.843C7.37369 14.0801 6.14813 19.6181 9.76049 22.5538C9.71044 22.9336 9.6808 23.3161 9.67173 23.6993C9.66016 23.9544 9.69999 24.2091 9.7887 24.4475C9.8774 24.6858 10.013 24.9026 10.187 25.084C10.5019 25.3832 10.8986 25.5747 11.3228 25.6324L11.3286 25.6331C11.5361 26.1871 11.9011 26.6632 12.3758 26.9988C12.8504 27.3343 13.4123 27.5136 13.9875 27.5128H17.4712C18.0464 27.5136 18.6083 27.3344 19.0829 26.9988C19.5575 26.6633 19.9226 26.1872 20.1301 25.6332L20.1359 25.6324C20.5604 25.5758 20.9574 25.3841 21.2717 25.084C21.4457 24.9026 21.5813 24.6858 21.67 24.4475C21.7587 24.2091 21.7985 23.9544 21.787 23.6993C21.7779 23.3161 21.7483 22.9336 21.6982 22.5538C25.3103 19.6181 24.0849 14.0799 24.0261 13.8255C24.0261 13.8255 23.751 12.7852 23.3827 11.4128C26.7088 11.7298 28.4201 10.8027 29.277 9.92961C29.7214 9.46568 30.0556 8.9017 30.2533 8.28195C30.4511 7.6622 30.507 7.00356 30.4168 6.35772ZM23.423 2.30911C23.4574 2.23438 23.5139 2.17284 23.5843 2.1333C23.6547 2.09377 23.7354 2.07827 23.8148 2.08905C23.9053 2.09812 23.9911 2.13531 24.0607 2.1957C24.1303 2.25609 24.1806 2.33685 24.2049 2.42733C24.656 3.97477 24.5787 5.16625 23.9866 5.97951C23.4081 6.2192 22.7964 6.48738 22.1462 6.78576C21.937 6.00079 21.7693 5.37259 21.6848 5.06543C21.6272 4.86405 21.5444 4.67127 21.4387 4.49192C22.2917 3.97925 22.9814 3.22063 23.423 2.30911ZM18.0735 3.81083C18.8483 3.79773 19.6002 4.08191 20.1838 4.60836C20.1971 4.62467 20.2113 4.64025 20.2262 4.65502C20.4345 4.84562 20.5891 5.09074 20.6737 5.36452C20.763 5.68941 20.9472 6.37986 21.1761 7.2389C20.9836 7.33003 20.7917 7.42075 20.5936 7.51582C16.6482 9.41011 17.9973 15.3281 18.8172 17.9277L18.816 17.9273C17.9559 17.6695 17.0603 17.5612 16.1658 17.6069C15.8766 17.6178 15.5821 17.6178 15.2929 17.6069C14.3989 17.5571 13.5032 17.6635 12.6434 17.9217C13.4636 15.3188 14.8073 9.40861 10.8651 7.51584C10.667 7.42076 10.4751 7.33008 10.2826 7.23894C10.5115 6.37992 10.6957 5.68942 10.7845 5.36614C10.8691 5.09178 11.0239 4.8461 11.2325 4.65505C11.2474 4.64021 11.2918 4.59513 11.3052 4.5787C11.8844 4.06902 12.6243 3.79589 13.3852 3.81083H18.0735ZM7.25282 2.43162C7.27666 2.34031 7.32683 2.25864 7.39667 2.19745C7.46651 2.13627 7.55272 2.09847 7.64386 2.08907C7.7235 2.07831 7.80439 2.09393 7.87489 2.13366C7.94539 2.17339 8.00186 2.2352 8.03618 2.31019C8.47769 3.22134 9.16715 3.9796 10.02 4.49195C9.91398 4.67199 9.8311 4.86549 9.77339 5.06759C9.68943 5.37279 9.52173 6.00086 9.31251 6.7859C8.66237 6.48762 8.05078 6.21947 7.47231 5.97988C6.88001 5.1666 6.8026 3.97517 7.25282 2.43162ZM2.92007 9.15648C2.59079 8.80941 2.34401 8.38815 2.19916 7.92586C2.05432 7.46358 2.01536 6.97288 2.08536 6.49241C2.08623 6.38958 2.11323 6.28878 2.16364 6.2001C2.21406 6.11142 2.28614 6.03796 2.37267 5.98706C3.11899 5.55943 5.03834 6.15363 6.91172 6.91566L6.91975 6.91892C7.65535 7.21836 8.38373 7.54239 9.03063 7.84201L8.37914 10.2823C5.84214 10.5911 3.95484 10.21 2.92007 9.15648ZM8.44725 14.1119C8.44725 14.1119 8.83033 12.6632 9.29788 10.9265L9.99963 8.29865C10.1503 8.37064 10.292 8.43867 10.422 8.50108C14.2299 10.329 11.6831 17.5606 11.2874 18.6152C10.6496 19.1313 10.2358 20.2162 9.98384 21.3028C7.44526 18.6959 8.44016 14.1441 8.44725 14.1119ZM17.4712 26.4268H13.9875C13.7032 26.4277 13.4227 26.3591 13.1688 26.2268C12.915 26.0945 12.695 25.9021 12.5268 25.6654H18.9398C18.7699 25.9023 18.5485 26.0946 18.2934 26.2269C18.0383 26.3591 17.7566 26.4276 17.4712 26.4268ZM20.5407 24.3021C20.3108 24.4861 20.0271 24.5837 19.7362 24.579H11.7067C11.4194 24.5924 11.1378 24.4935 10.918 24.3021C10.8482 24.2223 10.795 24.1286 10.7616 24.0268C10.7281 23.9251 10.7151 23.8173 10.7234 23.7102C10.7322 23.2643 10.7726 22.8196 10.8443 22.3798V22.3744C10.8496 22.3364 10.8549 22.3093 10.8601 22.2712C10.8644 22.2591 10.8662 22.2461 10.8654 22.2332C11.0757 21.0115 11.4911 19.806 11.9433 19.4477C11.9537 19.4413 11.9637 19.4344 11.9734 19.4269C11.9987 19.4125 12.0228 19.396 12.0454 19.3774C12.0528 19.3712 12.0625 19.367 12.0696 19.3608C12.9432 18.859 13.9375 18.6254 14.9354 18.6874C15.0405 18.6874 15.1457 18.6874 15.2561 18.6929C15.5716 18.7037 15.8871 18.7037 16.2026 18.6929C18.4059 18.6223 19.3787 19.3553 19.405 19.3771C19.4102 19.3825 19.4155 19.3879 19.4207 19.3879C19.4259 19.3915 19.4301 19.3935 19.4346 19.3969C19.4461 19.4053 19.4581 19.4123 19.4703 19.4197C19.4849 19.429 19.5018 19.4383 19.5154 19.4476C19.9676 19.806 20.383 21.0115 20.5933 22.2332C20.5925 22.2461 20.5943 22.2591 20.5986 22.2712C20.6039 22.3092 20.6091 22.3364 20.6144 22.3744V22.3798C20.6861 22.8196 20.7265 23.2643 20.7353 23.7102C20.7436 23.8173 20.7306 23.9251 20.6972 24.0268C20.6637 24.1286 20.6105 24.2223 20.5407 24.3021ZM21.4749 21.3027C21.2229 20.2161 20.8091 19.1313 20.1713 18.6152C19.7756 17.5606 17.2288 10.3289 21.0367 8.50107C21.1667 8.43866 21.3084 8.37063 21.4591 8.29861L22.1611 10.9276C22.6255 12.6531 23.0071 14.0943 23.0071 14.0943C23.0203 14.1519 24.0108 18.6982 21.4749 21.3027ZM28.5386 9.15648C27.5041 10.2105 25.6157 10.5926 23.0796 10.2825L22.428 7.84178C23.0735 7.54259 23.8002 7.21911 24.5342 6.92004L24.5493 6.9138C26.4208 6.15231 28.3378 5.5591 29.086 5.98706C29.1726 6.03796 29.2446 6.11142 29.2951 6.2001C29.3455 6.28878 29.3725 6.38958 29.3733 6.49241C29.4433 6.97288 29.4044 7.46358 29.2595 7.92586C29.1147 8.38815 28.8679 8.80941 28.5386 9.15648Z" fill="#44BAC1"/>
<path d="M30.4168 6.35772C30.3956 6.08479 30.3096 5.82147 30.1663 5.59107C30.023 5.36067 29.827 5.1703 29.5954 5.03682C28.7369 4.54675 27.3179 4.75156 25.3873 5.43743C25.6309 4.33316 25.5698 3.18045 25.2108 2.11026C25.1247 1.81547 24.956 1.55358 24.7261 1.35751C24.4961 1.16145 24.2152 1.03997 23.9186 1.00835C23.6336 0.977114 23.346 1.03484 23.0931 1.17407C22.8402 1.31331 22.6335 1.52765 22.4997 1.78942C22.1311 2.60569 21.498 3.26337 20.7097 3.64882C19.9586 3.03959 19.0286 2.7136 18.0735 2.72484H13.3852C12.4299 2.71287 11.4994 3.03888 10.7485 3.64867C9.96072 3.2634 9.32797 2.60619 8.95948 1.79051C8.82599 1.52832 8.61932 1.31357 8.36625 1.17411C8.11317 1.03465 7.82537 0.976906 7.54013 1.00836C7.24287 1.04022 6.9614 1.16228 6.73124 1.35914C6.50107 1.556 6.33253 1.81884 6.24686 2.1145C5.8884 3.1835 5.82764 4.33493 6.07149 5.43783C4.14085 4.75209 2.72195 4.54738 1.86326 5.03682C1.63175 5.1703 1.43568 5.36067 1.29242 5.59107C1.14915 5.82147 1.06311 6.08479 1.04191 6.35772C0.951666 7.00356 1.00762 7.6622 1.20537 8.28195C1.40312 8.9017 1.73729 9.46568 2.18165 9.92962C3.03863 10.8023 4.74972 11.7298 8.07592 11.4128C7.70751 12.786 7.43191 13.8282 7.42845 13.843C7.37369 14.0801 6.14813 19.6181 9.76049 22.5538C9.71044 22.9336 9.6808 23.3161 9.67173 23.6993C9.66016 23.9544 9.69999 24.2091 9.7887 24.4475C9.8774 24.6858 10.013 24.9026 10.187 25.084C10.5019 25.3832 10.8986 25.5747 11.3228 25.6324L11.3286 25.6331C11.5361 26.1871 11.9011 26.6632 12.3758 26.9988C12.8504 27.3343 13.4123 27.5136 13.9875 27.5128H17.4712C18.0464 27.5136 18.6083 27.3344 19.0829 26.9988C19.5575 26.6633 19.9226 26.1872 20.1301 25.6332L20.1359 25.6324C20.5604 25.5758 20.9574 25.3841 21.2717 25.084C21.4457 24.9026 21.5813 24.6858 21.67 24.4475C21.7587 24.2091 21.7985 23.9544 21.787 23.6993C21.7779 23.3161 21.7483 22.9336 21.6982 22.5538C25.3103 19.6181 24.0849 14.0799 24.0261 13.8255C24.0261 13.8255 23.751 12.7852 23.3827 11.4128C26.7088 11.7298 28.4201 10.8027 29.277 9.92961C29.7214 9.46568 30.0556 8.9017 30.2533 8.28195C30.4511 7.6622 30.507 7.00356 30.4168 6.35772ZM23.423 2.30911C23.4574 2.23438 23.5139 2.17284 23.5843 2.1333C23.6547 2.09377 23.7354 2.07827 23.8148 2.08905C23.9053 2.09812 23.9911 2.13531 24.0607 2.1957C24.1303 2.25609 24.1806 2.33685 24.2049 2.42733C24.656 3.97477 24.5787 5.16625 23.9866 5.97951C23.4081 6.2192 22.7964 6.48738 22.1462 6.78576C21.937 6.00079 21.7693 5.37259 21.6848 5.06543C21.6272 4.86405 21.5444 4.67127 21.4387 4.49192C22.2917 3.97925 22.9814 3.22063 23.423 2.30911ZM18.0735 3.81083C18.8483 3.79773 19.6002 4.08191 20.1838 4.60836C20.1971 4.62467 20.2113 4.64025 20.2262 4.65502C20.4345 4.84562 20.5891 5.09074 20.6737 5.36452C20.763 5.68941 20.9472 6.37986 21.1761 7.2389C20.9836 7.33003 20.7917 7.42075 20.5936 7.51582C16.6482 9.41011 17.9973 15.3281 18.8172 17.9277L18.816 17.9273C17.9559 17.6695 17.0603 17.5612 16.1658 17.6069C15.8766 17.6178 15.5821 17.6178 15.2929 17.6069C14.3989 17.5571 13.5032 17.6635 12.6434 17.9217C13.4636 15.3188 14.8073 9.40861 10.8651 7.51584C10.667 7.42076 10.4751 7.33008 10.2826 7.23894C10.5115 6.37992 10.6957 5.68942 10.7845 5.36614C10.8691 5.09178 11.0239 4.8461 11.2325 4.65505C11.2474 4.64021 11.2918 4.59513 11.3052 4.5787C11.8844 4.06902 12.6243 3.79589 13.3852 3.81083H18.0735ZM7.25282 2.43162C7.27666 2.34031 7.32683 2.25864 7.39667 2.19745C7.46651 2.13627 7.55272 2.09847 7.64386 2.08907C7.7235 2.07831 7.80439 2.09393 7.87489 2.13366C7.94539 2.17339 8.00186 2.2352 8.03618 2.31019C8.47769 3.22134 9.16715 3.9796 10.02 4.49195C9.91398 4.67199 9.8311 4.86549 9.77339 5.06759C9.68943 5.37279 9.52173 6.00086 9.31251 6.7859C8.66237 6.48762 8.05078 6.21947 7.47231 5.97988C6.88001 5.1666 6.8026 3.97517 7.25282 2.43162ZM2.92007 9.15648C2.59079 8.80941 2.34401 8.38815 2.19916 7.92586C2.05432 7.46358 2.01536 6.97288 2.08536 6.49241C2.08623 6.38958 2.11323 6.28878 2.16364 6.2001C2.21406 6.11142 2.28614 6.03796 2.37267 5.98706C3.11899 5.55943 5.03834 6.15363 6.91172 6.91566L6.91975 6.91892C7.65535 7.21836 8.38373 7.54239 9.03063 7.84201L8.37914 10.2823C5.84214 10.5911 3.95484 10.21 2.92007 9.15648ZM8.44725 14.1119C8.44725 14.1119 8.83033 12.6632 9.29788 10.9265L9.99963 8.29865C10.1503 8.37064 10.292 8.43867 10.422 8.50108C14.2299 10.329 11.6831 17.5606 11.2874 18.6152C10.6496 19.1313 10.2358 20.2162 9.98384 21.3028C7.44526 18.6959 8.44016 14.1441 8.44725 14.1119ZM17.4712 26.4268H13.9875C13.7032 26.4277 13.4227 26.3591 13.1688 26.2268C12.915 26.0945 12.695 25.9021 12.5268 25.6654H18.9398C18.7699 25.9023 18.5485 26.0946 18.2934 26.2269C18.0383 26.3591 17.7566 26.4276 17.4712 26.4268ZM20.5407 24.3021C20.3108 24.4861 20.0271 24.5837 19.7362 24.579H11.7067C11.4194 24.5924 11.1378 24.4935 10.918 24.3021C10.8482 24.2223 10.795 24.1286 10.7616 24.0268C10.7281 23.9251 10.7151 23.8173 10.7234 23.7102C10.7322 23.2643 10.7726 22.8196 10.8443 22.3798V22.3744C10.8496 22.3364 10.8549 22.3093 10.8601 22.2712C10.8644 22.2591 10.8662 22.2461 10.8654 22.2332C11.0757 21.0115 11.4911 19.806 11.9433 19.4477C11.9537 19.4413 11.9637 19.4344 11.9734 19.4269C11.9987 19.4125 12.0228 19.396 12.0454 19.3774C12.0528 19.3712 12.0625 19.367 12.0696 19.3608C12.9432 18.859 13.9375 18.6254 14.9354 18.6874C15.0405 18.6874 15.1457 18.6874 15.2561 18.6929C15.5716 18.7037 15.8871 18.7037 16.2026 18.6929C18.4059 18.6223 19.3787 19.3553 19.405 19.3771C19.4102 19.3825 19.4155 19.3879 19.4207 19.3879C19.4259 19.3915 19.4301 19.3935 19.4346 19.3969C19.4461 19.4053 19.4581 19.4123 19.4703 19.4197C19.4849 19.429 19.5018 19.4383 19.5154 19.4476C19.9676 19.806 20.383 21.0115 20.5933 22.2332C20.5925 22.2461 20.5943 22.2591 20.5986 22.2712C20.6039 22.3092 20.6091 22.3364 20.6144 22.3744V22.3798C20.6861 22.8196 20.7265 23.2643 20.7353 23.7102C20.7436 23.8173 20.7306 23.9251 20.6972 24.0268C20.6637 24.1286 20.6105 24.2223 20.5407 24.3021ZM21.4749 21.3027C21.2229 20.2161 20.8091 19.1313 20.1713 18.6152C19.7756 17.5606 17.2288 10.3289 21.0367 8.50107C21.1667 8.43866 21.3084 8.37063 21.4591 8.29861L22.1611 10.9276C22.6255 12.6531 23.0071 14.0943 23.0071 14.0943C23.0203 14.1519 24.0108 18.6982 21.4749 21.3027ZM28.5386 9.15648C27.5041 10.2105 25.6157 10.5926 23.0796 10.2825L22.428 7.84178C23.0735 7.54259 23.8002 7.21911 24.5342 6.92004L24.5493 6.9138C26.4208 6.15231 28.3378 5.5591 29.086 5.98706C29.1726 6.03796 29.2446 6.11142 29.2951 6.2001C29.3455 6.28878 29.3725 6.38958 29.3733 6.49241C29.4433 6.97288 29.4044 7.46358 29.2595 7.92586C29.1147 8.38815 28.8679 8.80941 28.5386 9.15648Z" stroke="#44BAC1" stroke-width="0.2" mask="url(#path-1-outside-1_3_4212)"/>
<path d="M20.0946 12.6785C20.2134 12.5965 20.353 12.5528 20.4956 12.5528V12.5028L20.4956 12.5528C20.6867 12.5531 20.8703 12.6317 21.0059 12.7718C21.1416 12.9119 21.2183 13.1022 21.2186 13.301C21.2186 13.4493 21.176 13.5942 21.0964 13.7173C21.0167 13.8404 20.9037 13.9361 20.7718 13.9925C20.6399 14.0489 20.4948 14.0636 20.3549 14.0349C20.215 14.0062 20.0862 13.9352 19.985 13.8306C19.8837 13.7261 19.8146 13.5927 19.7866 13.4473C19.7586 13.3018 19.773 13.1511 19.8279 13.0142C19.8828 12.8773 19.9757 12.7605 20.0946 12.6785Z" fill="#44BAC1" stroke="#44BAC1" stroke-width="0.1"/>
<path d="M11.3654 13.9235C11.2466 14.0055 11.1071 14.0492 10.9645 14.0492C10.7733 14.0489 10.5897 13.9704 10.4541 13.8303C10.3184 13.6901 10.2417 13.4998 10.2414 13.3009L10.1914 13.301H10.2414C10.2414 13.1527 10.284 13.0078 10.3637 12.8847C10.4433 12.7616 10.5563 12.666 10.6882 12.6095C10.8202 12.5531 10.9652 12.5384 11.1051 12.5671C11.2451 12.5959 11.3738 12.6669 11.475 12.7714C11.5763 12.8759 11.6454 13.0093 11.6734 13.1547C11.7014 13.3002 11.687 13.4509 11.6321 13.5879C11.5772 13.7248 11.4843 13.8415 11.3654 13.9235Z" fill="#44BAC1" stroke="#44BAC1" stroke-width="0.1"/>
<path d="M13.5398 20.5457L13.5398 20.5457C13.6678 20.5453 13.7946 20.571 13.9129 20.6215C14.0313 20.6719 14.139 20.746 14.2297 20.8397C14.3204 20.9334 14.3924 21.0447 14.4414 21.1674C14.4904 21.2901 14.5154 21.4216 14.515 21.5544L14.515 21.5544C14.5145 21.7536 14.4569 21.948 14.3496 22.1131C14.2424 22.2781 14.0903 22.4065 13.9129 22.4821C13.7354 22.5577 13.5403 22.5774 13.3522 22.5386C13.164 22.4998 12.991 22.4043 12.855 22.2639C12.719 22.1234 12.6261 21.9443 12.5884 21.7491C12.5507 21.5538 12.5698 21.3514 12.6433 21.1675C12.7168 20.9836 12.8413 20.8265 13.0009 20.716C13.1605 20.6054 13.348 20.5462 13.5398 20.5457Z" fill="#44BAC1" stroke="#44BAC1" stroke-width="0.1"/>
<path d="M17.3756 20.7134C17.5358 20.6035 17.7238 20.5452 17.9158 20.5457L17.9159 20.5457C18.1733 20.5466 18.4202 20.6529 18.6022 20.8418C18.7844 21.0309 18.8866 21.2872 18.8861 21.5545C18.8856 21.7538 18.8279 21.9484 18.7204 22.1136C18.6129 22.2788 18.4605 22.4071 18.2828 22.4826C18.1051 22.5581 17.9097 22.5774 17.7215 22.5382C17.5332 22.499 17.3601 22.403 17.2243 22.262C17.0885 22.1211 16.9961 21.9415 16.9589 21.7459C16.9217 21.5503 16.9416 21.3478 17.0158 21.1639C17.0901 20.9801 17.2154 20.8234 17.3756 20.7134Z" fill="#44BAC1" stroke="#44BAC1" stroke-width="0.1"/>
</svg>
