<svg width="21" height="25" viewBox="0 0 21 25" fill="none" xmlns="http://www.w3.org/2000/svg">
<path d="M13.8857 19.849C13.8857 21.774 12.3107 23.349 10.3857 23.349C9.42908 23.349 8.54241 22.9523 7.91241 22.3223C7.28241 21.6923 6.88574 20.8057 6.88574 19.849" stroke="#747474" stroke-width="1.5" stroke-miterlimit="10"/>
<path d="M10.387 1C6.52529 1 3.38696 4.13833 3.38696 8V11.3717C3.38696 12.0833 3.08363 13.1683 2.72196 13.775L1.38029 16.0033C0.551961 17.38 1.12363 18.9083 2.64029 19.4217C7.66863 21.1017 13.0936 21.1017 18.122 19.4217C19.5336 18.955 20.152 17.2867 19.382 16.0033L18.0403 13.775C17.6903 13.1683 17.387 12.0833 17.387 11.3717V8C17.387 4.15 14.237 1 10.387 1Z" stroke="#747474" stroke-width="1.5" stroke-miterlimit="10" stroke-linecap="round"/>
</svg>
