<svg width="28" height="28" viewBox="0 0 28 28" fill="none" xmlns="http://www.w3.org/2000/svg">
<path d="M10.1172 16.7181C10.1172 18.2231 11.2722 19.4364 12.7072 19.4364H15.6355C16.8839 19.4364 17.8989 18.3748 17.8989 17.0681C17.8989 15.6448 17.2805 15.1431 16.3589 14.8164L11.6572 13.1831C10.7355 12.8564 10.1172 12.3548 10.1172 10.9314C10.1172 9.62478 11.1322 8.56311 12.3805 8.56311H15.3089C16.7439 8.56311 17.8989 9.77644 17.8989 11.2814" stroke="#A1A8AD" stroke-width="1.5" stroke-linecap="round" stroke-linejoin="round"/>
<path d="M14 7V21" stroke="#A1A8AD" stroke-width="1.5" stroke-linecap="round" stroke-linejoin="round"/>
<path d="M13.9987 25.6667C20.442 25.6667 25.6654 20.4434 25.6654 14C25.6654 7.55672 20.442 2.33337 13.9987 2.33337C7.55538 2.33337 2.33203 7.55672 2.33203 14C2.33203 20.4434 7.55538 25.6667 13.9987 25.6667Z" stroke="#A1A8AD" stroke-width="1.5" stroke-linecap="round" stroke-linejoin="round"/>
</svg>
