<svg width="28" height="28" viewBox="0 0 28 28" fill="none" xmlns="http://www.w3.org/2000/svg">
<path d="M14.187 12.6817C14.0703 12.67 13.9303 12.67 13.802 12.6817C11.0253 12.5884 8.82031 10.3134 8.82031 7.51337C8.82031 4.65504 11.1303 2.33337 14.0003 2.33337C16.8586 2.33337 19.1803 4.65504 19.1803 7.51337C19.1686 10.3134 16.9636 12.5884 14.187 12.6817Z" stroke="#A1A8AD" stroke-width="1.5" stroke-linecap="round" stroke-linejoin="round"/>
<path d="M8.35578 16.9866C5.53245 18.8766 5.53245 21.9566 8.35578 23.835C11.5641 25.9816 16.8258 25.9816 20.0341 23.835C22.8574 21.945 22.8574 18.865 20.0341 16.9866C16.8374 14.8516 11.5758 14.8516 8.35578 16.9866Z" stroke="#A1A8AD" stroke-width="1.5" stroke-linecap="round" stroke-linejoin="round"/>
</svg>
