<svg width="28" height="28" viewBox="0 0 28 28" fill="none" xmlns="http://www.w3.org/2000/svg">
<path d="M2.67188 9.0766V20.4283C2.67188 22.6449 4.24688 23.5549 6.16021 22.4583L8.90188 20.8949C9.49687 20.5566 10.4885 20.5216 11.1069 20.8366L17.2319 23.9049C17.8502 24.2083 18.8419 24.1849 19.4369 23.8466L24.4885 20.9533C25.1302 20.5799 25.6669 19.6699 25.6669 18.9233V7.5716C25.6669 5.35493 24.0919 4.44493 22.1785 5.5416L19.4369 7.10493C18.8419 7.44326 17.8502 7.47826 17.2319 7.16326L11.1069 4.1066C10.4885 3.80326 9.49687 3.8266 8.90188 4.16493L3.85021 7.05826C3.19687 7.4316 2.67188 8.3416 2.67188 9.0766Z" fill="#56C9DC" stroke="#FCFDFF" stroke-width="1.5" stroke-linecap="round" stroke-linejoin="round"/>
<path d="M9.98828 4.66663V19.8333V4.66663Z" fill="#56C9DC"/>
<path d="M9.98828 4.66663V19.8333" stroke="#FCFDFF" stroke-width="1.5" stroke-linecap="round" stroke-linejoin="round"/>
<path d="M18.3516 7.72229V23.3323V7.72229Z" fill="#56C9DC"/>
<path d="M18.3516 7.72229V23.3323" stroke="#FCFDFF" stroke-width="1.5" stroke-linecap="round" stroke-linejoin="round"/>
</svg>
